PathFileType	4	(X/Y/Z)	/Users/itak/Documents/Research/Walk-IL/dataset/trc/00095_00006.trc
DataRate	CameraRate	NumFrames	NumMarkers	Units	OrigDataRate	OrigDataStartFrame	OrigNumFrames
100.000000	100.000000	4	53	mm	100.000000	133	534
Frame#	Time	RPSI			LPSI			L3			STRN			T10			C7			CLAV			RBAK			LBAK			LSHO			LUPA			LAEL			LAOL			LWTS			LWPS			LFRA			LIFD			LHPS			LHTS			RSHO			RUPA			RAEL			RAOL			RWTS			RWPS			RFRA			RIFD			RHTS			RHPS			RBHD			LFHD			RFHD			LBHD			LHIP			RHIP			RASI			LASI			LKNE			LTHI			LANK			LTIP			LTOE			LMT1			LMT5			LHEE			RKNE			RTHI			RANK			RTIP			RTOE			RMT1			RMT5			RHEE			
		X1	Y1	Z1	X2	Y2	Z2	X3	Y3	Z3	X4	Y4	Z4	X5	Y5	Z5	X6	Y6	Z6	X7	Y7	Z7	X8	Y8	Z8	X9	Y9	Z9	X10	Y10	Z10	X11	Y11	Z11	X12	Y12	Z12	X13	Y13	Z13	X14	Y14	Z14	X15	Y15	Z15	X16	Y16	Z16	X17	Y17	Z17	X18	Y18	Z18	X19	Y19	Z19	X20	Y20	Z20	X21	Y21	Z21	X22	Y22	Z22	X23	Y23	Z23	X24	Y24	Z24	X25	Y25	Z25	X26	Y26	Z26	X27	Y27	Z27	X28	Y28	Z28	X29	Y29	Z29	X30	Y30	Z30	X31	Y31	Z31	X32	Y32	Z32	X33	Y33	Z33	X34	Y34	Z34	X35	Y35	Z35	X36	Y36	Z36	X37	Y37	Z37	X38	Y38	Z38	X39	Y39	Z39	X40	Y40	Z40	X41	Y41	Z41	X42	Y42	Z42	X43	Y43	Z43	X44	Y44	Z44	X45	Y45	Z45	X46	Y46	Z46	X47	Y47	Z47	X48	Y48	Z48	X49	Y49	Z49	X50	Y50	Z50	X51	Y51	Z51	X52	Y52	Z52	X53	Y53	Z53	

134	1.33	-1361.420776367188	1041.656372070312	84.81475830078125	-1375.116333007812	1028.421875	-89.69964599609375	-1364.56494140625	1088.829833984375	-9.66026496887207	-1110.630004882812	1284.190795898438	-10.84957790374756	-1380.05810546875	1224.12646484375	-14.89170837402344	-1315.22265625	1489.715942382812	-18.81384086608887	-1138.2958984375	1399.54833984375	-13.75552749633789	-1381.50537109375	1352.311401367188	57.10615921020508	-1334.960205078125	1452.337890625	-121.9497604370117	-1228.399780273438	1454.326782226562	-191.6095275878906	-1242.481811523438	1326.132690429688	-268.7236633300781	-1219.830078125	1110.694702148438	-284.3184814453125	-1288.845947265625	1097.015869140625	-203.9355010986328	-1135.918334960938	871.2183227539062	-211.4862213134766	-1186.063354492188	860.5453491210938	-275.7077026367188	-1198.34912109375	1001.898681640625	-289.1485900878906	-1126.061157226562	686.3112182617188	-188.7560119628906	-1152.94189453125	779.918212890625	-267.6953735351562	-1110.805786132812	789.4486083984375	-212.5582733154297	-1255.609497070312	1450.719360351562	159.7322692871094	-1265.336303710938	1378.810913085938	223.8569793701172	-1287.076293945312	1109.855224609375	242.2280731201172	-1271.208740234375	1090.977416992188	143.8568878173828	-1144.553344726562	860.3694458007812	200.3026275634766	-1214.952514648438	844.6151733398438	251.2229919433594	-1272.906127929688	1031.56640625	246.625732421875	-1137.369018554688	673.4185180664062	183.4700012207031	-1119.926635742188	759.7494506835938	199.6018218994141	-1175.63818359375	755.9429931640625	253.7331390380859	-1293.71044921875	1645.692626953125	48.65951156616211	-1104.5595703125	1710.766479492188	-48.17839050292969	-1132.263305664062	1698.833862304688	74.02877044677734	-1272.707885742188	1665.042724609375	-86.24696350097656	-1271.632568359375	962.5601806640625	-179.3794708251953	-1293.994995117188	971.46533203125	164.0166778564453	-1170.034423828125	983.003173828125	139.6358489990234	-1159.079467773438	972.594970703125	-130.0116882324219	-1179.024536132812	502.05712890625	-129.9131469726562	-1217.69384765625	640.4054565429688	-166.3860168457031	-1327.407348632812	53.45120239257812	-141.8976898193359	-1259.529296875	263.6151733398438	-149.5171966552734	-1120.735595703125	46.91183090209961	-153.7206573486328	-1165.420288085938	46.51971435546875	-95.66436767578125	-1226.919799804688	45.29812240600586	-188.6543884277344	-1371.588745117188	50.26593399047852	-60.52516174316406	-1207.876831054688	521.5249633789062	145.408935546875	-1207.674560546875	792.9735107421875	172.5744934082031	-1314.478637695312	46.22265243530273	150.2331237792969	-1232.5634765625	398.7752685546875	154.0172424316406	-1096.880493164062	43.79478454589844	121.255126953125	-1157.451782226562	47.18079376220703	78.76730346679688	-1191.598510742188	49.91423416137695	171.3213348388672	-1360.841430664062	46.47491455078125	91.27006530761719	
135	1.34	-1361.018676757812	1041.76025390625	84.54965972900391	-1374.88330078125	1028.485473632812	-89.95075988769531	-1364.232543945312	1088.889526367188	-9.931120872497559	-1110.143676757812	1284.105834960938	-11.3303861618042	-1379.639282226562	1224.17333984375	-15.19836235046387	-1314.759765625	1489.75341796875	-19.18951797485352	-1137.78759765625	1399.443359375	-14.23529815673828	-1380.992797851562	1352.379638671875	56.80089950561523	-1334.551025390625	1452.380493164062	-122.2923278808594	-1228.00341796875	1454.315307617188	-192.0022888183594	-1242.362915039062	1326.12939453125	-269.1507873535156	-1219.810180664062	1110.690185546875	-284.7566833496094	-1288.732299804688	1097.053833007812	-204.2884063720703	-1135.945434570312	871.1370849609375	-211.9316711425781	-1186.159790039062	860.518798828125	-276.1111450195312	-1198.410278320312	1001.872009277344	-289.6001586914062	-1127.183471679688	686.5031127929688	-189.6678771972656	-1152.992065429688	779.89892578125	-268.1094360351562	-1110.866455078125	789.3998413085938	-212.9697570800781	-1254.988159179688	1450.7216796875	159.3649749755859	-1264.778930664062	1378.837280273438	223.4823608398438	-1286.729370117188	1109.927368164062	241.97314453125	-1270.862670898438	1091.0126953125	143.5699615478516	-1144.4501953125	860.249267578125	200.0492095947266	-1214.902954101562	844.6109619140625	251.0179443359375	-1272.709350585938	1031.616333007812	246.3487854003906	-1137.495727539062	673.2848510742188	183.3607025146484	-1119.944091796875	759.6069946289062	199.4815826416016	-1175.749755859375	755.8817749023438	253.4395294189453	-1292.839721679688	1645.841430664062	48.39573287963867	-1103.575805664062	1710.55810546875	-48.41215515136719	-1131.310546875	1698.5625	73.79234313964844	-1271.762939453125	1665.235229492188	-86.530517578125	-1271.541870117188	962.5831909179688	-179.8069610595703	-1293.605102539062	971.5361938476562	163.6830291748047	-1169.618774414062	982.9073486328125	139.2196655273438	-1158.820556640625	972.5022583007812	-130.3751831054688	-1178.775756835938	501.9940490722656	-130.0858001708984	-1217.59765625	640.3614501953125	-166.7052307128906	-1327.41259765625	53.46601867675781	-141.8914031982422	-1259.3935546875	263.55517578125	-149.475341796875	-1120.803833007812	46.96575927734375	-153.7120361328125	-1165.421997070312	46.54762649536133	-95.6632080078125	-1226.931884765625	45.34197235107422	-188.65380859375	-1371.597900390625	50.28250885009766	-60.52654266357422	-1207.977783203125	521.5380249023438	145.3249206542969	-1207.3994140625	792.9939575195312	172.1631164550781	-1314.488647460938	46.18970489501953	150.2834167480469	-1232.662231445312	398.8193664550781	153.9470062255859	-1096.914184570312	43.81563568115234	121.2842788696289	-1157.474853515625	47.21315002441406	78.80760192871094	-1191.653686523438	49.81483840942383	171.3547821044922	-1360.846313476562	46.44622039794922	91.34226989746094	
136	1.35	-1360.594604492188	1041.868286132812	84.2542724609375	-1374.610473632812	1028.549560546875	-90.22042083740234	-1363.870483398438	1088.946899414062	-10.22986221313477	-1109.642333984375	1284.027221679688	-11.85532474517822	-1379.206787109375	1224.21630859375	-15.53637409210205	-1314.280029296875	1489.78076171875	-19.58955001831055	-1137.25732421875	1399.338745117188	-14.73758888244629	-1380.494750976562	1352.4375	56.44212341308594	-1334.129760742188	1452.422607421875	-122.6620864868164	-1227.595947265625	1454.302856445312	-192.4285278320312	-1242.22802734375	1326.1259765625	-269.6018371582031	-1219.806274414062	1110.682006835938	-285.228271484375	-1288.609619140625	1097.091918945312	-204.6541900634766	-1135.939575195312	871.080322265625	-212.4164428710938	-1186.2685546875	860.4888305664062	-276.5313110351562	-1198.480712890625	1001.842407226562	-290.0768127441406	-1128.61279296875	686.7470092773438	-190.7269439697266	-1153.030883789062	779.8689575195312	-268.531982421875	-1110.98583984375	789.364501953125	-213.4241333007812	-1254.341918945312	1450.723510742188	158.9648590087891	-1264.198608398438	1378.86669921875	223.0758209228516	-1286.356079101562	1110.004150390625	241.7088012695312	-1270.505981445312	1091.049682617188	143.2794036865234	-1144.335327148438	860.1361083984375	199.7903137207031	-1214.826171875	844.6095581054688	250.8078918457031	-1272.482055664062	1031.671264648438	246.0669403076172	-1137.643920898438	673.1238403320312	183.2325134277344	-1119.945190429688	759.4783935546875	199.3645172119141	-1175.856567382812	755.8322143554688	253.1307830810547	-1291.945556640625	1645.974487304688	48.11154556274414	-1102.567626953125	1710.352661132812	-48.66108703613281	-1130.343872070312	1698.2841796875	73.53812408447266	-1270.782104492188	1665.424194335938	-86.82725524902344	-1271.43603515625	962.6041870117188	-180.2638397216797	-1293.18212890625	971.61279296875	163.3283081054688	-1169.212280273438	982.8160400390625	138.7662811279297	-1158.5009765625	972.3980102539062	-130.7989959716797	-1178.529663085938	501.9263610839844	-130.2817840576172	-1217.493286132812	640.3109741210938	-167.0493316650391	-1327.421752929688	53.48091888427734	-141.8871459960938	-1259.251342773438	263.4923400878906	-149.4365081787109	-1120.8759765625	47.02557373046875	-153.7002716064453	-1165.428344726562	46.58184432983398	-95.66417694091797	-1226.95556640625	45.39093017578125	-188.6547698974609	-1371.5986328125	50.2923583984375	-60.52260208129883	-1208.063232421875	521.543701171875	145.2245635986328	-1207.05712890625	792.9911499023438	171.6690979003906	-1314.496826171875	46.15606307983398	150.3334503173828	-1232.749267578125	398.8623352050781	153.8642883300781	-1096.95703125	43.84233856201172	121.3080215454102	-1157.497802734375	47.2452278137207	78.84621429443359	-1191.703979492188	49.72840118408203	171.3901977539062	-1360.849975585938	46.42036819458008	91.41018676757812	
137	1.36	-1360.147827148438	1041.981567382812	83.92787933349609	-1374.305297851562	1028.61279296875	-90.51544952392578	-1363.4833984375	1089.003051757812	-10.55976486206055	-1109.137939453125	1283.954345703125	-12.42682361602783	-1378.7548828125	1224.257080078125	-15.9032621383667	-1313.770141601562	1489.799438476562	-20.0109748840332	-1136.707397460938	1399.23974609375	-15.26291847229004	-1379.99853515625	1352.486572265625	56.03580474853516	-1333.696655273438	1452.462890625	-123.0622482299805	-1227.176879882812	1454.291137695312	-192.8916473388672	-1242.063110351562	1326.123657226562	-270.0763549804688	-1219.818969726562	1110.67041015625	-285.7333374023438	-1288.4814453125	1097.13232421875	-205.0376892089844	-1135.886352539062	871.054443359375	-212.9341278076172	-1186.380615234375	860.4557495117188	-276.9682006835938	-1198.547729492188	1001.810241699219	-290.5739135742188	-1130.125732421875	687.003173828125	-191.8340301513672	-1153.050170898438	779.825927734375	-268.958984375	-1111.154174804688	789.3473510742188	-213.9215087890625	-1253.664794921875	1450.72509765625	158.531982421875	-1263.586181640625	1378.899780273438	222.6380004882812	-1285.959106445312	1110.084594726562	241.4268341064453	-1270.133178710938	1091.08642578125	142.9770660400391	-1144.21142578125	860.0285034179688	199.5253448486328	-1214.723754882812	844.6111450195312	250.5910034179688	-1272.221801757812	1031.732055664062	245.7768707275391	-1137.808837890625	672.9435424804688	183.0791168212891	-1119.934936523438	759.3682861328125	199.2386779785156	-1175.953247070312	755.7990112304688	252.8154602050781	-1291.035766601562	1646.087280273438	47.79221343994141	-1101.532104492188	1710.149291992188	-48.92423629760742	-1129.366455078125	1697.99853515625	73.26195526123047	-1269.771240234375	1665.606201171875	-87.14307403564453	-1271.322631835938	962.6220092773438	-180.7541198730469	-1292.732177734375	971.6951293945312	162.9463958740234	-1168.798828125	982.7437744140625	138.2715606689453	-1158.129638671875	972.2816772460938	-131.3020629882812	-1178.291259765625	501.8536071777344	-130.5079956054688	-1217.371215820312	640.24853515625	-167.4154663085938	-1327.435302734375	53.49446105957031	-141.8854675292969	-1259.1083984375	263.4267578125	-149.409912109375	-1120.953369140625	47.09192657470703	-153.6880798339844	-1165.441162109375	46.62294769287109	-95.66859436035156	-1226.994018554688	45.44357681274414	-188.6597747802734	-1371.59375	50.29507827758789	-60.51548385620117	-1208.134765625	521.5421752929688	145.1017608642578	-1206.654663085938	792.9682006835938	171.1049499511719	-1314.4990234375	46.1185417175293	150.3854827880859	-1232.828979492188	398.9031982421875	153.7659759521484	-1097.008544921875	43.87416076660156	121.3260726928711	-1157.519775390625	47.27676391601562	78.88255310058594	-1191.748046875	49.65890121459961	171.4268341064453	-1360.858032226562	46.39991760253906	91.46493530273438	
